<?xml version="1.0" encoding="iso-8859-1"?>
<!-- Generator: Adobe Illustrator 19.0.0, SVG Export Plug-In . SVG Version: 6.00 Build 0)  -->
<svg xmlns="http://www.w3.org/2000/svg" xmlns:xlink="http://www.w3.org/1999/xlink" version="1.1" id="Layer_1" x="0px" y="0px" viewBox="0 0 469.336 469.336" style="enable-background:new 0 0 469.336 469.336;" xml:space="preserve" width="512px" height="512px">
<g>
	<g>
		<path d="M357.267,235.516l99.569-98.681c8.063-8.063,12.5-18.771,12.5-30.167s-4.438-22.104-12.5-30.167l-64-64    c-16.125-16.125-44.177-16.156-60.365,0.031l-98.65,99.538L124.878,3.126c-4.167-4.167-10.917-4.167-15.083,0L3.128,109.793    c-4.167,4.167-4.167,10.917,0,15.083l109.491,109.491l-66.855,67.457c-1.271,1.281-2.188,2.854-2.688,4.583L0.409,455.741    c-1.063,3.719-0.021,7.729,2.719,10.469c2.031,2.031,4.75,3.125,7.542,3.125c0.979,0,1.969-0.135,2.927-0.406l149.333-42.667    c1.729-0.5,3.302-1.417,4.583-2.688l67.457-66.855L344.461,466.21c2.083,2.083,4.813,3.125,7.542,3.125    c2.729,0,5.458-1.042,7.542-3.125l106.667-106.667c4.167-4.167,4.167-10.917,0-15.083L357.267,235.516z M347.586,27.585    c8.063-8.063,22.104-8.063,30.167,0l64,64c4.031,4.031,6.25,9.385,6.25,15.083s-2.219,11.052-6.219,15.052l-47.033,46.613    l-93.747-93.747L347.586,27.585z M111.086,202.668l35.125-35.125c4.167-4.167,4.167-10.917,0-15.083    c-4.167-4.167-10.917-4.167-15.083,0l-35.125,35.125L68.42,160.001l35.125-35.125c4.167-4.167,4.167-10.917,0-15.083    s-10.917-4.167-15.083,0l-35.125,35.125l-27.583-27.583l91.583-91.583l101.47,101.47l-91.172,91.995L111.086,202.668z     M285.989,89.737l39.264,39.264L120.257,333.998l-14.712-29.434c-1.813-3.615-5.5-5.896-9.542-5.896H78.921L285.989,89.737z     M26.201,443.137L40.095,394.5l34.742,34.742L26.201,443.137z M149.336,407.96l-51.035,14.579l-51.503-51.503l14.579-51.035    h28.031l18.385,36.771c1.031,2.063,2.708,3.74,4.771,4.771l36.771,18.385V407.96z M170.67,390.417v-17.082    c0-4.042-2.281-7.729-5.896-9.542l-29.434-14.712l204.996-204.996l39.264,39.264L170.67,390.417z M352.003,443.585l-27.583-27.583    l35.125-35.125c4.167-4.167,4.167-10.917,0-15.083c-4.167-4.167-10.917-4.167-15.083,0l-35.125,35.125l-27.583-27.583    l35.125-35.125c4.167-4.167,4.167-10.917,0-15.083c-4.167-4.167-10.917-4.167-15.083,0l-35.125,35.125l-16.548-16.548    l91.995-91.172l101.47,101.47L352.003,443.585z" fill="#00afdb"/>
	</g>
</g>
<g>
</g>
<g>
</g>
<g>
</g>
<g>
</g>
<g>
</g>
<g>
</g>
<g>
</g>
<g>
</g>
<g>
</g>
<g>
</g>
<g>
</g>
<g>
</g>
<g>
</g>
<g>
</g>
<g>
</g>
</svg>
